<svg width="350" height="328" viewBox="0 0 350 328" fill="none" xmlns="http://www.w3.org/2000/svg">
<path d="M105 327.162H21C9.42025 327.162 0 318.379 0 307.582V229.265C0 218.468 9.42025 209.685 21 209.685H105C116.58 209.685 126 218.468 126 229.265V307.582C126 318.379 116.58 327.162 105 327.162ZM21 222.738C17.1404 222.738 14 225.666 14 229.265V307.582C14 311.181 17.1404 314.109 21 314.109H105C108.86 314.109 112 311.181 112 307.582V229.265C112 225.666 108.86 222.738 105 222.738H21ZM329 118.315H245C233.42 118.315 224 109.532 224 98.7354V20.4178C224 9.62138 233.42 0.838379 245 0.838379H329C340.58 0.838379 350 9.62138 350 20.4178V98.7354C350 109.532 340.58 118.315 329 118.315ZM245 13.8913C241.14 13.8913 238 16.8193 238 20.4178V98.7354C238 102.334 241.14 105.262 245 105.262H329C332.86 105.262 336 102.334 336 98.7354V20.4178C336 16.8193 332.86 13.8913 329 13.8913H245ZM147 274.95V261.897C147.018 261.897 152.785 261.806 158.225 259.154C164.803 255.947 168 250.441 168 242.318V85.6825C168 72.5602 174.346 62.374 185.869 57.0027C194.109 53.1611 202.115 53.0501 203 53.0501L203.039 66.1031C202.981 66.1031 197.215 66.1945 191.775 68.8466C185.197 72.0528 182 77.5595 182 85.6825V242.318C182 255.44 175.654 265.626 164.131 270.998C155.891 274.839 147.885 274.95 147 274.95Z" fill="url(#paint0_linear_55425_1162)"/>
<defs>
<linearGradient id="paint0_linear_55425_1162" x1="175" y1="0.838379" x2="175" y2="327.162" gradientUnits="userSpaceOnUse">
<stop stop-color="#783192"/>
<stop offset="0.5" stop-color="#7289DA"/>
<stop offset="1" stop-color="#59BCC8"/>
</linearGradient>
</defs>
</svg>
