<svg data-v-423bf9ae="" xmlns="http://www.w3.org/2000/svg" viewBox="0 0 1777.7777777777778 1851" class="iconAbove"><!----><!----><!----><g data-v-423bf9ae="" id="eaa53d9e-1311-483a-a594-e9e598666a11" fill="black" transform="matrix(5.628517904206723,0,0,5.628517904206723,692.0877654509356,1790.8340487778992)"><path d="M0.97 1.36L2.91 1.36L2.91 10.50L0.97 10.50L0.97 1.36ZM13.10 3.12L13.10 3.12Q13.86 3.12 14.31 3.39Q14.77 3.65 15.01 4.09Q15.25 4.52 15.32 5.08Q15.40 5.64 15.40 6.24L15.40 6.24L15.40 10.50L13.52 10.50L13.52 10.49L13.51 6.19Q13.51 5.84 13.47 5.54Q13.43 5.25 13.31 5.04Q13.19 4.83 12.98 4.71Q12.77 4.59 12.45 4.59L12.45 4.59Q12.03 4.59 11.75 4.79Q11.47 4.98 11.31 5.29Q11.16 5.59 11.10 5.94Q11.03 6.29 11.03 6.59L11.03 6.59L11.03 10.50L9.18 10.50L9.18 10.49L9.17 10.49L9.17 6.19Q9.17 5.84 9.12 5.54Q9.07 5.25 8.95 5.03Q8.82 4.82 8.60 4.70Q8.37 4.58 8.02 4.58L8.02 4.58Q7.63 4.58 7.38 4.77Q7.13 4.97 6.97 5.27Q6.82 5.57 6.76 5.93Q6.69 6.29 6.69 6.59L6.69 6.59L6.69 10.50L4.82 10.50L4.82 3.29L6.23 3.29L6.54 4.40Q6.54 4.40 6.66 4.20Q6.79 4.00 7.04 3.77Q7.29 3.53 7.68 3.33Q8.06 3.12 8.60 3.12L8.60 3.12Q9.30 3.12 9.73 3.32Q10.16 3.51 10.42 3.75L10.42 3.75Q10.71 4.03 10.85 4.38L10.85 4.38Q10.88 4.34 11.00 4.14Q11.13 3.95 11.40 3.72Q11.66 3.49 12.08 3.30Q12.50 3.12 13.10 3.12ZM25.56 3.12L25.56 3.12Q26.32 3.12 26.77 3.39Q27.23 3.65 27.47 4.09Q27.71 4.52 27.78 5.08Q27.86 5.64 27.86 6.24L27.86 6.24L27.86 10.50L25.98 10.50L25.98 10.49L25.97 6.19Q25.97 5.84 25.93 5.54Q25.89 5.25 25.77 5.04Q25.65 4.83 25.44 4.71Q25.23 4.59 24.91 4.59L24.91 4.59Q24.49 4.59 24.21 4.79Q23.93 4.98 23.77 5.29Q23.62 5.59 23.55 5.94Q23.49 6.29 23.49 6.59L23.49 6.59L23.49 10.50L21.64 10.50L21.64 10.49L21.63 10.49L21.63 6.19Q21.63 5.84 21.58 5.54Q21.53 5.25 21.41 5.03Q21.28 4.82 21.06 4.70Q20.83 4.58 20.48 4.58L20.48 4.58Q20.09 4.58 19.84 4.77Q19.59 4.97 19.43 5.27Q19.28 5.57 19.21 5.93Q19.15 6.29 19.15 6.59L19.15 6.59L19.15 10.50L17.28 10.50L17.28 3.29L18.69 3.29L19.00 4.40Q19.00 4.40 19.12 4.20Q19.25 4.00 19.50 3.77Q19.75 3.53 20.14 3.33Q20.52 3.12 21.06 3.12L21.06 3.12Q21.76 3.12 22.19 3.32Q22.62 3.51 22.88 3.75L22.88 3.75Q23.17 4.03 23.31 4.38L23.31 4.38Q23.34 4.34 23.46 4.14Q23.59 3.95 23.86 3.72Q24.12 3.49 24.54 3.30Q24.96 3.12 25.56 3.12ZM33.25 10.65L33.25 10.65Q32.09 10.65 31.33 10.35Q30.58 10.04 30.12 9.52Q29.67 9.00 29.48 8.32Q29.30 7.64 29.30 6.89L29.30 6.89Q29.30 6.22 29.48 5.54Q29.67 4.87 30.07 4.33Q30.46 3.79 31.11 3.46Q31.75 3.12 32.68 3.12L32.68 3.12Q33.66 3.12 34.31 3.46Q34.96 3.79 35.35 4.33Q35.74 4.87 35.90 5.54Q36.06 6.22 36.06 6.89L36.06 6.89L36.06 7.52L31.11 7.52Q31.11 8.27 31.65 8.76Q32.19 9.25 33.12 9.25L33.12 9.25Q33.66 9.25 34.10 9.14Q34.55 9.03 34.87 8.89L34.87 8.89Q35.24 8.74 35.55 8.53L35.55 8.53L35.55 10.09Q35.55 10.11 35.36 10.19Q35.18 10.28 34.87 10.38Q34.57 10.49 34.15 10.57Q33.73 10.65 33.25 10.65ZM31.11 6.19L34.29 6.19Q34.29 5.95 34.22 5.66Q34.16 5.38 33.98 5.12Q33.81 4.87 33.50 4.70Q33.18 4.54 32.68 4.54L32.68 4.54Q32.24 4.54 31.94 4.70Q31.64 4.87 31.46 5.12Q31.28 5.38 31.19 5.66Q31.11 5.95 31.11 6.19L31.11 6.19ZM41.97 3.18L41.97 5.10Q41.65 5.03 41.39 5.02Q41.13 5.01 40.91 5.03L40.91 5.03Q40.46 5.05 40.17 5.22Q39.89 5.39 39.73 5.66Q39.58 5.94 39.52 6.28Q39.47 6.62 39.47 6.99L39.47 6.99L39.47 10.50L37.58 10.50L37.58 3.36L38.96 3.36L39.26 4.93Q39.26 4.93 39.29 4.77Q39.33 4.61 39.43 4.38Q39.54 4.14 39.73 3.88Q39.93 3.63 40.23 3.43Q40.53 3.23 40.96 3.15Q41.38 3.07 41.97 3.18L41.97 3.18ZM47.94 3.98L47.31 5.39Q46.83 5.03 46.27 4.84Q45.71 4.66 45.33 4.66L45.33 4.66Q44.97 4.66 44.76 4.79Q44.55 4.91 44.55 5.24L44.55 5.24Q44.55 5.52 44.81 5.68Q45.08 5.85 45.47 6.00Q45.86 6.15 46.33 6.31Q46.79 6.47 47.18 6.73Q47.57 6.99 47.84 7.38Q48.10 7.78 48.10 8.40L48.10 8.40Q48.10 8.99 47.89 9.41Q47.67 9.84 47.31 10.12Q46.96 10.39 46.49 10.52Q46.03 10.65 45.54 10.65L45.54 10.65Q45.19 10.65 44.79 10.58Q44.39 10.50 44.01 10.34Q43.62 10.18 43.27 9.95Q42.91 9.72 42.64 9.42L42.64 9.42L43.26 8.05Q43.75 8.58 44.31 8.86Q44.87 9.13 45.33 9.13L45.33 9.13Q45.72 9.13 46.09 8.99Q46.45 8.85 46.47 8.51L46.47 8.51Q46.48 8.19 46.22 7.99Q45.96 7.78 45.57 7.63Q45.18 7.48 44.72 7.31Q44.25 7.15 43.86 6.90Q43.47 6.65 43.20 6.27Q42.94 5.89 42.95 5.29L42.95 5.29Q42.95 4.72 43.16 4.30Q43.36 3.89 43.69 3.63Q44.03 3.37 44.47 3.25Q44.91 3.12 45.39 3.12L45.39 3.12Q45.67 3.12 46.00 3.18Q46.34 3.23 46.68 3.35Q47.03 3.46 47.36 3.61Q47.68 3.77 47.94 3.98L47.94 3.98ZM51.65 10.50L49.76 10.50L49.76 3.29L51.65 3.29L51.65 10.50ZM51.74 1.02L51.74 1.02Q51.74 1.47 51.44 1.78Q51.13 2.09 50.69 2.09L50.69 2.09Q50.25 2.09 49.94 1.78Q49.63 1.47 49.63 1.02L49.63 1.02Q49.63 0.59 49.94 0.29Q50.25-0.01 50.69-0.01L50.69-0.01Q51.13-0.01 51.44 0.29Q51.74 0.59 51.74 1.02ZM56.98 3.12L56.98 3.12Q57.54 3.12 58.20 3.29Q58.86 3.46 59.43 3.88Q60.00 4.30 60.39 5.03Q60.77 5.75 60.77 6.89L60.77 6.89Q60.77 8.02 60.39 8.75Q60.00 9.48 59.43 9.90Q58.86 10.32 58.20 10.49Q57.54 10.65 56.98 10.65L56.98 10.65Q56.42 10.65 55.76 10.49Q55.10 10.32 54.54 9.90Q53.97 9.48 53.59 8.75Q53.21 8.02 53.21 6.89L53.21 6.89Q53.21 5.75 53.59 5.03Q53.97 4.30 54.54 3.88Q55.10 3.46 55.76 3.29Q56.42 3.12 56.98 3.12ZM56.98 9.25L56.98 9.25Q57.76 9.25 58.29 8.64Q58.81 8.02 58.81 6.89L58.81 6.89Q58.81 5.75 58.29 5.14Q57.76 4.54 56.98 4.54L56.98 4.54Q56.22 4.54 55.71 5.14Q55.19 5.75 55.19 6.89L55.19 6.89Q55.19 7.45 55.33 7.89Q55.47 8.33 55.71 8.63Q55.94 8.93 56.27 9.09Q56.60 9.25 56.98 9.25ZM66.51 3.12L66.51 3.12Q67.16 3.12 67.62 3.34Q68.08 3.56 68.38 3.93Q68.68 4.31 68.82 4.83Q68.96 5.35 68.96 5.95L68.96 5.95L68.96 10.50L67.09 10.50L67.09 6.58Q67.09 5.54 66.81 5.05Q66.53 4.56 65.84 4.56L65.84 4.56Q65.02 4.56 64.62 5.25Q64.22 5.94 64.22 7.06L64.22 7.06L64.22 10.50L62.34 10.50L62.34 3.29L63.74 3.29L64.12 4.27Q64.26 4.12 64.43 3.91Q64.60 3.71 64.86 3.54Q65.11 3.36 65.51 3.24Q65.91 3.12 66.51 3.12Z"></path></g><!----><g data-v-423bf9ae="" id="8adb0a57-c928-4f86-acbc-9c6279aa1e7a" transform="matrix(4.444444444444445,0,0,4.444444444444445,-248.77777777777783,-248.77777777777783)" stroke="none" fill="black"><path d="M176 456H80c-13.234 0-24-10.766-24-24v-96c0-13.234 10.766-24 24-24h96c13.234 0 24 10.766 24 24v96c0 13.234-10.766 24-24 24zM80 328c-4.411 0-8 3.589-8 8v96c0 4.411 3.589 8 8 8h96c4.411 0 8-3.589 8-8v-96c0-4.411-3.589-8-8-8H80zM432 200h-96c-13.234 0-24-10.766-24-24V80c0-13.234 10.766-24 24-24h96c13.234 0 24 10.766 24 24v96c0 13.234-10.766 24-24 24zM336 72c-4.411 0-8 3.589-8 8v96c0 4.411 3.589 8 8 8h96c4.411 0 8-3.589 8-8V80c0-4.411-3.589-8-8-8h-96zM224 392v-16c.021 0 6.611-.112 12.828-3.363C244.346 368.707 248 361.957 248 352V160c0-16.085 7.253-28.571 20.422-35.155C277.839 120.136 286.988 120 288 120l.044 16c-.066 0-6.655.112-12.873 3.363C267.654 143.293 264 150.043 264 160v192c0 16.085-7.253 28.571-20.422 35.155C234.161 391.864 225.012 392 224 392z"></path></g><!----></svg>